<svg width="683" height="683" viewBox="0 0 683 683" fill="none" xmlns="http://www.w3.org/2000/svg">
<mask id="mask0_13_32" style="mask-type:luminance" maskUnits="userSpaceOnUse" x="0" y="0" width="683" height="683">
<path d="M0 0H682.667V682.667H0V0Z" fill="white"/>
</mask>
<g mask="url(#mask0_13_32)">
<path d="M118.028 492.345C113.163 486.234 108.349 480.085 103.617 473.872C78.6613 491.526 58.524 507.56 49.708 516.374C18.9867 547.096 18.9867 596.904 49.708 627.625C80.4293 658.346 130.237 658.346 160.959 627.625C162.525 626.06 164.321 624.133 166.311 621.889C149.993 619.593 134.257 612.176 121.708 599.625C92.2733 570.192 91.06 523.248 118.028 492.345Z" fill="#D2CDF7"/>
<path d="M106.667 106.667C106.667 77.06 122.761 51.2306 146.667 37.396C134.897 30.584 121.244 26.6666 106.667 26.6666C62.4838 26.6666 26.6665 62.484 26.6665 106.667C26.6665 150.849 62.4838 186.667 106.667 186.667C121.244 186.667 134.897 182.749 146.667 175.937C122.761 162.103 106.667 136.273 106.667 106.667Z" fill="#D2CDF7"/>
<path d="M186.667 106.667C186.667 150.849 150.849 186.667 106.667 186.667C62.4838 186.667 26.6665 150.849 26.6665 106.667C26.6665 62.484 62.4838 26.6666 106.667 26.6666C150.849 26.6666 186.667 62.484 186.667 106.667Z" stroke="#11047A" stroke-width="53.3333" stroke-miterlimit="10" stroke-linecap="round" stroke-linejoin="round"/>
<path d="M128.478 283.949C126.461 317.979 130.979 352.123 142.069 384.333C153.339 417.069 140.973 453.321 112.486 473.003C83.4822 493.043 59.5462 511.869 49.7075 521.708C18.9862 552.429 18.9862 602.237 49.7075 632.958C80.4288 663.68 130.237 663.68 160.958 632.958C170.797 623.12 189.623 599.184 209.663 570.179C229.345 541.695 265.597 529.326 298.334 540.597C390.939 572.48 499.528 550.052 575.457 474.123C680.302 369.277 683.161 202.145 581.841 100.825C501.873 20.8585 381.646 5.78653 282.666 54.5305" stroke="#11047A" stroke-width="53.3333" stroke-miterlimit="10" stroke-linecap="round" stroke-linejoin="round"/>
<path d="M272 174.667L406.667 309.333" stroke="#FFB700" stroke-width="53.3333" stroke-miterlimit="10" stroke-linecap="round" stroke-linejoin="round"/>
<path d="M208 261.333L400 454.667" stroke="#FFB700" stroke-width="53.3333" stroke-miterlimit="10" stroke-linecap="round" stroke-linejoin="round"/>
</g>
</svg>
