<svg width="683" height="683" viewBox="0 0 683 683" fill="none" xmlns="http://www.w3.org/2000/svg">
<mask id="mask0_13_55" style="mask-type:luminance" maskUnits="userSpaceOnUse" x="0" y="0" width="683" height="683">
<path d="M0 -0.00012207H682.667V682.667H0V-0.00012207Z" fill="white"/>
</mask>
<g mask="url(#mask0_13_55)">
<path d="M118.028 492.345C113.163 486.234 108.349 480.085 103.617 473.871C78.6613 491.526 58.524 507.559 49.708 516.374C18.9867 547.095 18.9867 596.903 49.708 627.625C80.4293 658.346 130.237 658.346 160.959 627.625C162.525 626.059 164.321 624.133 166.311 621.889C149.993 619.593 134.257 612.175 121.708 599.625C92.2733 570.191 91.06 523.247 118.028 492.345Z" fill="#4718AB"/>
<path d="M106.667 106.667C106.667 77.0598 122.761 51.2305 146.667 37.3958C134.897 30.5838 121.244 26.6665 106.667 26.6665C62.4841 26.6665 26.6667 62.4838 26.6667 106.667C26.6667 150.849 62.4841 186.667 106.667 186.667C121.244 186.667 134.897 182.749 146.667 175.937C122.761 162.103 106.667 136.273 106.667 106.667Z" fill="#4718AB"/>
<path d="M186.667 106.667C186.667 150.849 150.849 186.667 106.667 186.667C62.4841 186.667 26.6667 150.849 26.6667 106.667C26.6667 62.4838 62.4841 26.6665 106.667 26.6665C150.849 26.6665 186.667 62.4838 186.667 106.667Z" stroke="white" stroke-width="53.3333" stroke-miterlimit="10" stroke-linecap="round" stroke-linejoin="round"/>
<path d="M128.479 283.949C126.461 317.978 130.98 352.122 142.069 384.333C153.34 417.069 140.973 453.321 112.487 473.002C83.4826 493.042 59.5467 511.869 49.708 521.708C18.9867 552.429 18.9867 602.237 49.708 632.958C80.4293 663.68 130.237 663.68 160.959 632.958C170.797 623.12 189.624 599.184 209.664 570.178C229.345 541.694 265.597 529.326 298.335 540.597C390.94 572.48 499.528 550.052 575.457 474.122C680.303 369.277 683.161 202.145 581.841 100.825C501.873 20.8583 381.647 5.78631 282.667 54.5303" stroke="white" stroke-width="53.3333" stroke-miterlimit="10" stroke-linecap="round" stroke-linejoin="round"/>
<path d="M272 174.666L406.667 309.333" stroke="#EBB44A" stroke-width="53.3333" stroke-miterlimit="10" stroke-linecap="round" stroke-linejoin="round"/>
<path d="M208 261.333L400 454.667" stroke="#EBB44A" stroke-width="53.3333" stroke-miterlimit="10" stroke-linecap="round" stroke-linejoin="round"/>
</g>
</svg>
